<?xml version="1.0" standalone="no"?>
<!DOCTYPE svg PUBLIC "-//W3C//DTD SVG 20010904//EN"
 "http://www.w3.org/TR/2001/REC-SVG-20010904/DTD/svg10.dtd">
<svg version="1.0" xmlns="http://www.w3.org/2000/svg"
 width="148.000000pt" height="148.000000pt" viewBox="0 0 148.000000 148.000000"
 preserveAspectRatio="xMidYMid meet">

<g transform="translate(0.000000,148.000000) scale(0.100000,-0.100000)"
fill="#000000" stroke="none">
<path d="M0 943 l0 -538 40 -1 c40 -2 128 -45 143 -71 4 -7 21 -13 36 -13 28
0 61 -26 61 -49 0 -7 10 -11 24 -9 27 3 56 -17 56 -41 0 -23 12 -37 38 -45 21
-7 22 -5 22 47 0 59 21 130 47 159 15 17 14 18 -13 18 -63 1 -174 72 -174 112
0 13 13 21 45 29 34 9 45 16 43 28 -2 11 -16 17 -50 19 -41 3 -52 8 -74 37
-24 32 -50 112 -40 122 3 3 19 -17 36 -45 48 -78 99 -101 147 -67 29 20 40 62
47 173 6 119 30 172 93 209 40 23 50 25 90 17 61 -12 100 -59 115 -140 10 -57
1 -122 -27 -186 -5 -13 -3 -18 8 -18 8 0 26 -9 41 -21 20 -16 26 -29 26 -60 0
-52 -24 -106 -61 -140 l-30 -27 33 -25 c46 -35 143 -82 208 -101 54 -16 55
-16 73 5 10 12 17 29 15 38 -6 29 -81 72 -143 80 -64 9 -95 34 -95 76 0 27 43
65 72 65 10 0 44 -9 76 -20 31 -12 76 -25 100 -30 41 -10 44 -9 68 19 14 17
33 32 42 35 17 6 17 13 4 124 -19 159 -3 221 64 238 52 13 79 -45 62 -135 -11
-63 13 -201 42 -238 84 -109 134 -213 126 -261 -6 -42 -61 -102 -116 -127 -21
-9 -42 -27 -48 -39 -18 -39 -99 -86 -150 -86 -51 0 -101 27 -122 65 -7 14 -17
25 -21 25 -5 0 -6 6 -4 12 3 8 -28 31 -77 58 -181 100 -258 158 -258 196 0 18
-5 22 -36 21 -29 -1 -33 -3 -20 -13 30 -22 21 -48 -79 -216 -30 -51 -55 -103
-55 -115 0 -24 -11 -27 -71 -24 -18 2 -28 -5 -36 -22 -6 -13 -26 -28 -44 -34
-25 -8 126 -11 574 -12 l607 -1 0 740 0 740 -740 0 -740 0 0 -537z m765 405
c22 -130 19 -172 -13 -176 -35 -5 -160 36 -171 56 -11 20 8 82 35 115 51 61
100 107 115 107 13 0 20 -21 34 -102z m-654 -234 c56 -35 79 -70 79 -120 0
-50 -8 -54 -37 -21 -28 30 -113 157 -113 168 0 11 26 1 71 -27z m134 -534 c3
-5 2 -10 -4 -10 -5 0 -13 5 -16 10 -3 6 -2 10 4 10 5 0 13 -4 16 -10z"/>
<path d="M548 779 c-3 -20 1 -34 12 -42 9 -7 20 -21 25 -32 8 -18 9 -16 13 12
3 32 -21 93 -37 93 -5 0 -11 -14 -13 -31z"/>
<path d="M140 28 c-14 -5 -51 -8 -82 -5 -46 4 -58 2 -58 -9 0 -11 25 -14 131
-14 71 0 128 4 125 9 -3 4 -16 6 -29 4 -14 -3 -31 2 -40 11 -8 9 -17 16 -19
15 -2 0 -14 -5 -28 -11z"/>
</g>
</svg>
